<?xml version="1.0" encoding="UTF-8"?>
<svg id="Layer_2" data-name="Layer 2" xmlns="http://www.w3.org/2000/svg" viewBox="0 0 1622.85 748.98">
  <defs>
    <style>
      .cls-1 {
        fill: #828282;
      }

      .cls-2 {
        fill: #f7931e;
      }

      .cls-3 {
        fill: #2e2e2e;
      }

      .cls-4 {
        fill: #1f3a93;
      }
    </style>
  </defs>
  <g id="Layer_1-2" data-name="Layer 1">
    <g>
      <g>
        <path class="cls-1" d="M414.06,474.35v-88.86h17.85l25.17,75.12,25.17-75.12h17.85v88.86h-9.89v-78.33h-1.8l-25.81,75.12h-11.04l-25.81-75.12h-1.8v78.33h-9.89Z"/>
        <path class="cls-1" d="M593.84,429.53v32.87c.26,3.17,2.74,5.05,7.45,5.65l-.39,7.58c-6.76,0-11.86-1.71-15.28-5.14-7.7,3.42-15.41,5.14-23.11,5.14-5.91,0-10.4-1.67-13.48-5.01s-4.62-8.13-4.62-14.38,1.58-10.85,4.75-13.8c3.17-2.95,8.13-4.77,14.9-5.46l20.16-1.93v-5.52c0-4.37-.94-7.49-2.83-9.37-1.88-1.88-4.45-2.83-7.71-2.83-6.85,0-13.96.43-21.32,1.28l-3.98.38-.38-7.32c9.42-1.88,17.76-2.83,25.04-2.83s12.56,1.67,15.86,5.01c3.29,3.34,4.94,8.56,4.94,15.67ZM554.29,455.73c0,7.88,3.25,11.81,9.76,11.81,5.82,0,11.56-.98,17.21-2.95l2.95-1.03v-21.19l-19.01,1.8c-3.85.34-6.63,1.46-8.35,3.34-1.71,1.88-2.57,4.62-2.57,8.22ZM554.42,391.91l27.74-12.58,3.34,8.22-28.38,10.92-2.7-6.55Z"/>
        <path class="cls-1" d="M661.26,417.46c-9.33,0-14,3.25-14,9.76,0,3,1.07,5.12,3.21,6.36,2.14,1.24,7.02,2.53,14.64,3.85,7.62,1.33,13.01,3.19,16.18,5.59,3.17,2.4,4.75,6.89,4.75,13.48s-2.12,11.43-6.36,14.51-10.42,4.62-18.56,4.62c-5.31,0-11.56-.6-18.75-1.8l-3.85-.64.51-8.35c9.76,1.46,17.12,2.18,22.09,2.18s8.75-.79,11.36-2.38c2.61-1.58,3.92-4.24,3.92-7.96s-1.11-6.25-3.34-7.58c-2.23-1.33-7.11-2.59-14.64-3.79-7.53-1.2-12.88-2.95-16.05-5.26-3.17-2.31-4.75-6.59-4.75-12.84s2.2-10.87,6.61-13.87c4.41-3,9.91-4.5,16.5-4.5,5.22,0,11.77.6,19.65,1.8l3.6.64-.26,8.22c-9.5-1.37-16.99-2.05-22.47-2.05Z"/>
        <path class="cls-1" d="M806.88,475.63c-8.65,0-14.83-2.52-18.56-7.58-3.72-5.05-5.59-13.61-5.59-25.68s2.22-20.67,6.68-25.81c4.45-5.14,12.33-7.71,23.63-7.71l21.45,1.28v92.71h-9.5v-31.46c-5.99,2.83-12.03,4.24-18.11,4.24ZM813.17,417.21c-8.05,0-13.51,2.01-16.37,6.04-2.87,4.02-4.3,10.42-4.3,19.2s1.18,15.07,3.53,18.88c2.35,3.81,6.31,5.71,11.88,5.71,4.96,0,9.89-.94,14.77-2.83l2.31-.9v-45.33c-5.31-.51-9.25-.77-11.81-.77Z"/>
        <path class="cls-1" d="M921.42,410.14h9.63v64.21h-9.63v-4.49c-6.42,3.85-12.76,5.78-19.01,5.78-8.73,0-14.53-2.27-17.4-6.81-2.87-4.54-4.3-12.93-4.3-25.17v-33.52h9.63v33.39c0,9.33.81,15.58,2.44,18.75,1.62,3.17,5.31,4.75,11.04,4.75,2.83,0,5.69-.41,8.6-1.22,2.91-.81,5.14-1.61,6.68-2.38l2.31-1.16v-52.14Z"/>
        <path class="cls-1" d="M1021.45,466.39l3.72-.38.26,7.58c-9.76,1.37-18.11,2.05-25.04,2.05-9.25,0-15.79-2.67-19.65-8.03-3.85-5.35-5.78-13.68-5.78-24.98,0-22.51,8.94-33.77,26.84-33.77,8.65,0,15.11,2.42,19.39,7.26,4.28,4.84,6.42,12.44,6.42,22.79l-.51,7.32h-42.38c0,7.11,1.28,12.37,3.85,15.79,2.57,3.43,7.04,5.14,13.42,5.14s12.86-.26,19.45-.77ZM1017.99,438.52c0-7.88-1.26-13.44-3.79-16.69-2.53-3.25-6.64-4.88-12.33-4.88s-9.97,1.71-12.84,5.14c-2.87,3.43-4.35,8.91-4.43,16.44h33.39Z"/>
        <path class="cls-1" d="M1160.65,418.49h-20.42v30.69c0,7.36.53,12.2,1.61,14.51,1.07,2.31,3.62,3.47,7.64,3.47l11.43-.77.64,7.96c-5.74.94-10.1,1.41-13.1,1.41-6.68,0-11.3-1.62-13.87-4.88-2.57-3.25-3.85-9.46-3.85-18.62v-33.77h-9.12v-8.35h9.12v-19.65h9.5v19.65h20.42v8.35Z"/>
        <path class="cls-1" d="M1200.72,395.63v-11.17h9.63v11.17h-9.63ZM1200.72,474.35v-64.21h9.63v64.21h-9.63Z"/>
        <path class="cls-1" d="M1300.75,466.39l3.72-.38.26,7.58c-9.76,1.37-18.11,2.05-25.04,2.05-9.25,0-15.79-2.67-19.65-8.03-3.85-5.35-5.78-13.68-5.78-24.98,0-22.51,8.94-33.77,26.84-33.77,8.65,0,15.11,2.42,19.39,7.26,4.28,4.84,6.42,12.44,6.42,22.79l-.51,7.32h-42.38c0,7.11,1.28,12.37,3.85,15.79,2.57,3.43,7.04,5.14,13.42,5.14s12.86-.26,19.45-.77ZM1297.28,438.52c0-7.88-1.26-13.44-3.79-16.69-2.53-3.25-6.64-4.88-12.33-4.88s-9.97,1.71-12.84,5.14c-2.87,3.43-4.35,8.91-4.43,16.44h33.39Z"/>
        <path class="cls-1" d="M1359.82,474.35h-9.63v-64.21h9.5v4.5c6.93-3.85,13.57-5.78,19.9-5.78,8.56,0,14.32,2.31,17.27,6.93,2.95,4.62,4.43,12.84,4.43,24.66v33.9h-9.5v-33.64c0-8.9-.88-15-2.63-18.3-1.76-3.29-5.5-4.94-11.24-4.94-2.74,0-5.63.41-8.67,1.22-3.04.81-5.37,1.6-7,2.38l-2.44,1.16v52.14Z"/>
        <path class="cls-1" d="M1496.71,382.15v92.2h-9.5v-4.37c-6.59,3.77-13.1,5.65-19.52,5.65-3.42,0-6.42-.43-8.99-1.28s-4.97-2.4-7.19-4.62c-4.62-4.62-6.93-13.16-6.93-25.62s2.07-21.45,6.23-26.97c4.15-5.52,11.02-8.28,20.61-8.28,4.96,0,10.23.56,15.79,1.67v-28.38h9.5ZM1463.32,466.13c1.54.6,3.53.9,5.97.9s5.18-.41,8.22-1.22c3.04-.81,5.41-1.61,7.13-2.38l2.57-1.16v-43.53c-5.48-1.03-10.57-1.54-15.28-1.54-6.51,0-11.04,2.08-13.61,6.23-2.57,4.15-3.85,10.59-3.85,19.33,0,9.93,1.5,16.61,4.49,20.03,1.37,1.63,2.83,2.74,4.37,3.34Z"/>
        <path class="cls-1" d="M1588.91,429.53v32.87c.26,3.17,2.74,5.05,7.45,5.65l-.39,7.58c-6.76,0-11.86-1.71-15.28-5.14-7.71,3.42-15.41,5.14-23.11,5.14-5.91,0-10.4-1.67-13.48-5.01s-4.62-8.13-4.62-14.38,1.58-10.85,4.75-13.8c3.17-2.95,8.13-4.77,14.9-5.46l20.16-1.93v-5.52c0-4.37-.94-7.49-2.83-9.37-1.88-1.88-4.45-2.83-7.71-2.83-6.85,0-13.96.43-21.32,1.28l-3.98.38-.38-7.32c9.42-1.88,17.76-2.83,25.04-2.83s12.56,1.67,15.86,5.01c3.29,3.34,4.94,8.56,4.94,15.67ZM1549.36,455.73c0,7.88,3.25,11.81,9.76,11.81,5.82,0,11.56-.98,17.21-2.95l2.95-1.03v-21.19l-19.01,1.8c-3.85.34-6.63,1.46-8.35,3.34-1.71,1.88-2.57,4.62-2.57,8.22Z"/>
      </g>
      <g>
        <path class="cls-3" d="M423.48,125.75c-13.19.42-23.3,5.45-30.31,15.08-7.02,9.64-10.52,26.28-10.52,49.95,0,7.75.73,13.14,2.2,16.18,1.46,3.04,2.2,4.77,2.2,5.18-11.31,0-19.74-2.36-25.29-7.07-5.55-4.71-8.32-12.51-8.32-23.4,0-14.87,3.66-28.43,11-40.68,7.33-12.25,19.01-22.15,35.03-29.69,16.02-7.54,36.39-11.31,61.1-11.31,5.03,0,11.73.53,20.1,1.57,15.08,1.47,25.76,2.2,32.04,2.2,11.1,0,20.52-1.26,28.27-3.77-.63,1.88-1.78,6.02-3.46,12.41-1.68,6.39-4.66,11.83-8.95,16.34-4.29,4.51-10.11,7.49-17.44,8.95-12.36,0-27.02-1.99-43.98-5.97l-13.19,62.51h45.86l-5.03,23.25h-45.86l-25.45,118.12h-45.24l45.24-209.85Z"/>
        <path class="cls-3" d="M516.15,178.53h45.24l-4.08,19.48c7.12-6.28,13.56-11.1,19.32-14.45,5.76-3.35,11.99-5.03,18.69-5.03s11.99,2.31,15.86,6.91c3.87,4.61,5.81,10.16,5.81,16.65,0,6.08-1.99,11.42-5.97,16.02-3.98,4.61-9.53,6.91-16.65,6.91-4.61,0-7.7-1.1-9.27-3.3-1.57-2.2-2.78-5.39-3.61-9.58-.63-2.72-1.26-4.71-1.89-5.97-.63-1.26-1.78-1.88-3.46-1.88-4.4,0-8.12.89-11.15,2.67-3.04,1.78-6.96,4.87-11.78,9.27l-25.13,119.37h-45.24l33.3-157.07Z"/>
        <path class="cls-3" d="M620.76,325.23c-7.96-8.17-11.94-20.94-11.94-38.33,0-15.5,3.09-31.78,9.27-48.85,6.18-17.07,15.39-31.52,27.64-43.35,12.25-11.83,26.86-17.75,43.82-17.75,8.58,0,14.97,1.47,19.16,4.4,4.19,2.94,6.28,6.81,6.28,11.62v2.2l3.46-16.65h45.24l-22.62,106.81c-.84,3.14-1.26,6.49-1.26,10.05,0,9.01,4.29,13.51,12.88,13.51,5.86,0,10.94-2.72,15.24-8.17,4.29-5.44,7.7-12.57,10.21-21.36h13.19c-7.75,22.62-17.33,37.96-28.74,46.02-11.42,8.06-22.88,12.09-34.4,12.09-8.8,0-15.86-2.46-21.2-7.38-5.34-4.92-8.54-12.09-9.58-21.52-6.08,8.59-12.83,15.55-20.26,20.89-7.44,5.34-16.29,8.01-26.54,8.01-11.94,0-21.89-4.08-29.84-12.25ZM686.57,299.63c5.13-4.92,8.64-11.67,10.52-20.26l15.08-71c0-2.72-1.05-5.39-3.14-8.01-2.1-2.62-5.34-3.93-9.74-3.93-8.38,0-15.92,4.87-22.62,14.61-6.7,9.74-11.94,21.47-15.71,35.18-3.77,13.72-5.65,25.81-5.65,36.28s1.52,17.17,4.55,20.1c3.03,2.94,6.75,4.4,11.15,4.4,5.23,0,10.42-2.46,15.55-7.38Z"/>
        <path class="cls-3" d="M862.01,327.43c-5.03-6.7-7.54-15.18-7.54-25.45,0-4.4.52-9.37,1.57-14.92,1.05-5.55,2.14-10.94,3.3-16.18,1.15-5.23,1.93-8.58,2.36-10.05,1.67-7.33,3.24-14.55,4.71-21.68,1.46-7.12,2.2-12.88,2.2-17.28,0-10.68-3.77-16.02-11.31-16.02-5.45,0-10.26,2.67-14.45,8.01-4.19,5.34-7.54,12.31-10.05,20.89l-21.36,100.84h-45.24l33.3-157.07h45.24l-3.46,16.33c10.47-11.73,22.72-17.59,36.75-17.59,10.68,0,19.16,2.94,25.45,8.8,6.28,5.87,9.42,14.76,9.42,26.7,0,6.08-.74,12.83-2.2,20.26-1.47,7.44-3.56,16.49-6.28,27.17-1.68,6.49-3.2,12.83-4.56,19.01-1.36,6.18-2.04,11.05-2.04,14.61,0,4.19.94,7.44,2.83,9.74,1.88,2.31,5.13,3.46,9.74,3.46,5.03,0,8.48-.63,10.37-1.88-1.26,10.68-5.08,18.75-11.47,24.19-6.39,5.45-14.09,8.17-23.09,8.17-11.1,0-19.16-3.35-24.19-10.05Z"/>
      </g>
      <path class="cls-4" d="M955.52,580.78c13.1,0,23.73-10.62,23.73-23.73s-10.62-23.73-23.73-23.73H406.21c-39.76,0-73.61-29.73-78.74-69.16-.05-.39-.11-.78-.18-1.17l-66.69-368.6C253.29,40.54,206.93,0,152.5,0,92.35,0,43.41,48.94,43.41,109.09v143.77C18.08,262.48,0,286.93,0,315.59v27.01c0,37.02,30.12,67.14,67.14,67.14s67.14-30.12,67.14-67.14v-27.01c0-28.66-18.08-53.11-43.41-62.73V109.09c0-33.99,27.65-61.64,61.64-61.64,30.87,0,57.14,23.08,61.13,53.69.05.39.11.78.18,1.17l66.69,368.6c8.46,62.69,62.39,109.88,125.71,109.88h549.31ZM86.83,342.6c0,10.86-8.83,19.69-19.69,19.69s-19.69-8.83-19.69-19.69v-27.01c0-10.86,8.83-19.69,19.69-19.69s19.69,8.83,19.69,19.69v27.01Z"/>
      <g>
        <path class="cls-2" d="M1031.02,334.34c-10.05-4.6-17.8-11.04-23.25-19.32-5.45-8.27-8.17-17.85-8.17-28.74,0-9.21,1.93-17.59,5.81-25.13,3.87-7.54,9.11-13.51,15.71-17.91,6.6-4.4,13.87-6.6,21.83-6.6,7.33,0,13.51,1.84,18.53,5.5,5.03,3.67,8.17,8.75,9.42,15.24-10.89,0-19.58,2.88-26.07,8.64-6.49,5.76-9.74,13.56-9.74,23.4,0,9.01,2.72,16.23,8.17,21.68,5.44,5.45,12.67,8.17,21.68,8.17,11.1,0,20.26-3.72,27.49-11.15,7.22-7.43,10.84-16.81,10.84-28.12,0-9.84-2.72-19.16-8.17-27.96-5.45-8.8-13.62-19.48-24.5-32.04-11.31-12.98-19.84-24.13-25.6-33.46-5.76-9.32-8.64-19.53-8.64-30.63s3.03-20.68,9.11-29.37c6.07-8.69,14.45-15.55,25.13-20.58s22.72-7.54,36.13-7.54c16.96,0,30.52,3.98,40.68,11.94,10.16,7.96,15.24,18.64,15.24,32.04,0,8.8-2.2,15.92-6.6,21.36-4.4,5.45-10.16,8.17-17.28,8.17-7.96,0-14.35-3.24-19.16-9.74,3.98-2.93,7.12-6.8,9.42-11.62,2.3-4.81,3.46-9.84,3.46-15.08,0-6.7-1.99-12.04-5.97-16.02-3.98-3.98-9.42-5.97-16.33-5.97-8.38,0-15.24,2.98-20.58,8.95-5.34,5.97-8.01,13.56-8.01,22.77,0,8.38,2.41,16.18,7.22,23.4,4.82,7.23,12.35,16.49,22.62,27.8,8.37,9.01,15.13,16.76,20.26,23.25,5.13,6.49,9.53,13.98,13.19,22.46,3.66,8.48,5.5,17.65,5.5,27.49,0,13.41-3.72,25.55-11.15,36.44-7.44,10.89-17.59,19.48-30.47,25.76-12.88,6.28-27.17,9.42-42.88,9.42-13.19,0-24.82-2.31-34.87-6.91Z"/>
        <path class="cls-2" d="M1174.74,328.06c-6.18-6.28-9.27-15.71-9.27-28.27,0-5.23.84-12.04,2.51-20.42l18.85-88.27h-10.37l2.51-12.57h10.37l9.42-43.35,46.49-6.28-10.68,49.63h18.85l-2.51,12.57h-18.85l-20.11,94.24c-.84,3.14-1.26,6.49-1.26,10.05,0,4.19.99,7.18,2.98,8.95,1.99,1.78,5.29,2.67,9.89,2.67,6.07,0,11.73-2.56,16.96-7.7,5.23-5.13,9-11.78,11.31-19.95h13.19c-7.75,22.62-17.7,37.96-29.84,46.02-12.15,8.06-24.19,12.09-36.13,12.09-10.05,0-18.17-3.14-24.35-9.42Z"/>
        <path class="cls-2" d="M1260.97,324.92c-9.01-7.96-13.51-20.52-13.51-37.7,0-14.24,2.94-30.05,8.8-47.44,5.86-17.38,15.28-32.41,28.27-45.08,12.98-12.67,29.32-19.01,49.01-19.01,26.8,0,40.21,16.76,40.21,50.26v.31c.63.21,1.78.31,3.46.31,6.91,0,14.87-1.83,23.87-5.5,9-3.66,17.17-8.11,24.5-13.35l2.83,8.48c-6.08,6.49-13.98,11.99-23.72,16.49-9.74,4.51-20.37,7.7-31.89,9.58-1.68,19.06-5.97,35.71-12.88,49.95-6.91,14.24-15.82,25.24-26.7,32.98-10.89,7.75-22.73,11.62-35.5,11.62-15.5,0-27.75-3.98-36.75-11.94ZM1325.37,299.95c5.03-5.76,9.42-13.61,13.19-23.56,3.77-9.94,6.49-20.99,8.17-33.14-5.66-1.26-8.48-5.65-8.48-13.19,0-8.58,3.24-14.24,9.74-16.96-.42-6.91-1.47-11.67-3.14-14.29-1.68-2.62-4.61-3.93-8.8-3.93-6.91,0-13.62,5.03-20.1,15.08-6.49,10.05-11.73,22.1-15.71,36.13-3.98,14.03-5.97,26.39-5.97,37.07,0,10.05,1.15,16.81,3.46,20.26,2.3,3.46,6.49,5.18,12.57,5.18,5.03,0,10.05-2.88,15.08-8.64Z"/>
        <path class="cls-2" d="M1411.13,178.53h45.24l-4.08,19.48c7.12-6.28,13.56-11.1,19.32-14.45,5.76-3.35,11.99-5.03,18.69-5.03s11.99,2.31,15.86,6.91c3.87,4.61,5.81,10.16,5.81,16.65,0,6.08-1.99,11.42-5.97,16.02-3.98,4.61-9.53,6.91-16.65,6.91-4.61,0-7.7-1.1-9.27-3.3-1.57-2.2-2.78-5.39-3.61-9.58-.63-2.72-1.26-4.71-1.88-5.97-.63-1.26-1.78-1.88-3.46-1.88-4.4,0-8.12.89-11.15,2.67-3.04,1.78-6.97,4.87-11.78,9.27l-25.13,119.37h-45.24l33.3-157.07Z"/>
        <path class="cls-2" d="M1516.36,325.39c-8.58-8.06-12.88-20.68-12.88-37.85,0-14.45,2.83-30.36,8.48-47.75,5.65-17.38,14.87-32.41,27.64-45.08,12.77-12.67,29-19.01,48.69-19.01,23.04,0,34.56,10.05,34.56,30.16,0,11.73-3.35,22.52-10.05,32.36-6.71,9.85-15.6,17.75-26.7,23.72-11.1,5.97-22.93,9.38-35.5,10.21-.42,4.61-.63,7.75-.63,9.42,0,17.39,6.49,26.07,19.48,26.07,5.86,0,12.14-1.57,18.85-4.71,6.7-3.14,12.77-7.12,18.22-11.94-5.66,31-23.77,46.49-54.35,46.49-15.29,0-27.23-4.03-35.81-12.09ZM1575.26,249.21c7.01-5.03,12.67-11.47,16.96-19.32,4.29-7.85,6.44-16.07,6.44-24.66s-2.62-12.88-7.85-12.88c-7.33,0-14.61,6.65-21.83,19.95-7.23,13.3-12.62,28.22-16.18,44.77,7.96-.21,15.44-2.83,22.46-7.85Z"/>
      </g>
      <g>
        <path class="cls-2" d="M555.14,680.3c0-37.87-30.81-68.68-68.67-68.68s-68.67,30.81-68.67,68.68,30.81,68.67,68.67,68.67,68.67-30.81,68.67-68.67ZM486.46,701.53c-11.7,0-21.22-9.52-21.22-21.22s9.52-21.22,21.22-21.22,21.22,9.52,21.22,21.22-9.52,21.22-21.22,21.22Z"/>
        <path class="cls-2" d="M734.5,680.3c0,37.87,30.81,68.67,68.67,68.67s68.67-30.81,68.67-68.67-30.81-68.68-68.67-68.68-68.67,30.81-68.67,68.68ZM824.4,680.3c0,11.7-9.52,21.22-21.22,21.22s-21.22-9.52-21.22-21.22,9.52-21.22,21.22-21.22,21.22,9.52,21.22,21.22Z"/>
      </g>
    </g>
  </g>
</svg>