<?xml version="1.0" encoding="UTF-8"?>
<svg id="Layer_2" data-name="Layer 2" xmlns="http://www.w3.org/2000/svg" viewBox="0 0 1622.85 748.98">
  <defs>
    <style>
      .cls-1, .cls-2 {
        fill: #828282;
      }

      .cls-2 {
        font-family: TitilliumWeb-Regular, 'Titillium Web';
        font-size: 128.41px;
        letter-spacing: .22em;
      }

      .cls-3 {
        fill: #f7931e;
      }

      .cls-4 {
        fill: #2e2e2e;
      }

      .cls-5 {
        fill: #1f3a93;
      }
    </style>
  </defs>
  <g id="Layer_1-2" data-name="Layer 1">
    <g>
      <text class="cls-2" transform="translate(403.15 474.35)"><tspan x="0" y="0">Más que tienda</tspan></text>
      <g>
        <path class="cls-5" d="M423.48,125.75c-13.19.42-23.3,5.45-30.31,15.08-7.02,9.64-10.52,26.28-10.52,49.95,0,7.75.73,13.14,2.2,16.18,1.46,3.04,2.2,4.77,2.2,5.18-11.31,0-19.74-2.36-25.29-7.07-5.55-4.71-8.32-12.51-8.32-23.4,0-14.87,3.66-28.43,11-40.68,7.33-12.25,19.01-22.15,35.03-29.69,16.02-7.54,36.39-11.31,61.1-11.31,5.03,0,11.73.53,20.1,1.57,15.08,1.47,25.76,2.2,32.04,2.2,11.1,0,20.52-1.26,28.27-3.77-.63,1.88-1.78,6.02-3.46,12.41-1.68,6.39-4.66,11.83-8.95,16.34-4.29,4.51-10.11,7.49-17.44,8.95-12.36,0-27.02-1.99-43.98-5.97l-13.19,62.51h45.86l-5.03,23.25h-45.86l-25.45,118.12h-45.24l45.24-209.85Z"/>
        <path class="cls-5" d="M516.15,178.53h45.24l-4.08,19.48c7.12-6.28,13.56-11.1,19.32-14.45,5.76-3.35,11.99-5.03,18.69-5.03s11.99,2.31,15.86,6.91c3.87,4.61,5.81,10.16,5.81,16.65,0,6.08-1.99,11.42-5.97,16.02-3.98,4.61-9.53,6.91-16.65,6.91-4.61,0-7.7-1.1-9.27-3.3-1.57-2.2-2.78-5.39-3.61-9.58-.63-2.72-1.26-4.71-1.89-5.97-.63-1.26-1.78-1.88-3.46-1.88-4.4,0-8.12.89-11.15,2.67-3.04,1.78-6.96,4.87-11.78,9.27l-25.13,119.37h-45.24l33.3-157.07Z"/>
        <path class="cls-5" d="M620.76,325.23c-7.96-8.17-11.94-20.94-11.94-38.33,0-15.5,3.09-31.78,9.27-48.85,6.18-17.07,15.39-31.52,27.64-43.35,12.25-11.83,26.86-17.75,43.82-17.75,8.58,0,14.97,1.47,19.16,4.4,4.19,2.94,6.28,6.81,6.28,11.62v2.2l3.46-16.65h45.24l-22.62,106.81c-.84,3.14-1.26,6.49-1.26,10.05,0,9.01,4.29,13.51,12.88,13.51,5.86,0,10.94-2.72,15.24-8.17,4.29-5.44,7.7-12.57,10.21-21.36h13.19c-7.75,22.62-17.33,37.96-28.74,46.02-11.42,8.06-22.88,12.09-34.4,12.09-8.8,0-15.86-2.46-21.2-7.38-5.34-4.92-8.54-12.09-9.58-21.52-6.08,8.59-12.83,15.55-20.26,20.89-7.44,5.34-16.29,8.01-26.54,8.01-11.94,0-21.89-4.08-29.84-12.25ZM686.57,299.63c5.13-4.92,8.64-11.67,10.52-20.26l15.08-71c0-2.72-1.05-5.39-3.14-8.01-2.1-2.62-5.34-3.93-9.74-3.93-8.38,0-15.92,4.87-22.62,14.61-6.7,9.74-11.94,21.47-15.71,35.18-3.77,13.72-5.65,25.81-5.65,36.28s1.52,17.17,4.55,20.1c3.03,2.94,6.75,4.4,11.15,4.4,5.23,0,10.42-2.46,15.55-7.38Z"/>
        <path class="cls-5" d="M862.01,327.43c-5.03-6.7-7.54-15.18-7.54-25.45,0-4.4.52-9.37,1.57-14.92,1.05-5.55,2.14-10.94,3.3-16.18,1.15-5.23,1.93-8.58,2.36-10.05,1.67-7.33,3.24-14.55,4.71-21.68,1.46-7.12,2.2-12.88,2.2-17.28,0-10.68-3.77-16.02-11.31-16.02-5.45,0-10.26,2.67-14.45,8.01-4.19,5.34-7.54,12.31-10.05,20.89l-21.36,100.84h-45.24l33.3-157.07h45.24l-3.46,16.33c10.47-11.73,22.72-17.59,36.75-17.59,10.68,0,19.16,2.94,25.45,8.8,6.28,5.87,9.42,14.76,9.42,26.7,0,6.08-.74,12.83-2.2,20.26-1.47,7.44-3.56,16.49-6.28,27.17-1.68,6.49-3.2,12.83-4.56,19.01-1.36,6.18-2.04,11.05-2.04,14.61,0,4.19.94,7.44,2.83,9.74,1.88,2.31,5.13,3.46,9.74,3.46,5.03,0,8.48-.63,10.37-1.88-1.26,10.68-5.08,18.75-11.47,24.19-6.39,5.45-14.09,8.17-23.09,8.17-11.1,0-19.16-3.35-24.19-10.05Z"/>
      </g>
      <path class="cls-4" d="M955.52,580.78c13.1,0,23.73-10.62,23.73-23.73s-10.62-23.73-23.73-23.73H406.21c-39.76,0-73.61-29.73-78.74-69.16-.05-.39-.11-.78-.18-1.17l-66.69-368.6C253.29,40.54,206.93,0,152.5,0,92.35,0,43.41,48.94,43.41,109.09v143.77C18.08,262.48,0,286.93,0,315.59v27.01c0,37.02,30.12,67.14,67.14,67.14s67.14-30.12,67.14-67.14v-27.01c0-28.66-18.08-53.11-43.41-62.73V109.09c0-33.99,27.65-61.64,61.64-61.64,30.87,0,57.14,23.08,61.13,53.69.05.39.11.78.18,1.17l66.69,368.6c8.46,62.69,62.39,109.88,125.71,109.88h549.31ZM86.83,342.6c0,10.86-8.83,19.69-19.69,19.69s-19.69-8.83-19.69-19.69v-27.01c0-10.86,8.83-19.69,19.69-19.69s19.69,8.83,19.69,19.69v27.01Z"/>
      <g>
        <path class="cls-3" d="M1031.02,334.34c-10.05-4.6-17.8-11.04-23.25-19.32-5.45-8.27-8.17-17.85-8.17-28.74,0-9.21,1.93-17.59,5.81-25.13,3.87-7.54,9.11-13.51,15.71-17.91,6.6-4.4,13.87-6.6,21.83-6.6,7.33,0,13.51,1.84,18.53,5.5,5.03,3.67,8.17,8.75,9.42,15.24-10.89,0-19.58,2.88-26.07,8.64-6.49,5.76-9.74,13.56-9.74,23.4,0,9.01,2.72,16.23,8.17,21.68,5.44,5.45,12.67,8.17,21.68,8.17,11.1,0,20.26-3.72,27.49-11.15,7.22-7.43,10.84-16.81,10.84-28.12,0-9.84-2.72-19.16-8.17-27.96-5.45-8.8-13.62-19.48-24.5-32.04-11.31-12.98-19.84-24.13-25.6-33.46-5.76-9.32-8.64-19.53-8.64-30.63s3.03-20.68,9.11-29.37c6.07-8.69,14.45-15.55,25.13-20.58s22.72-7.54,36.13-7.54c16.96,0,30.52,3.98,40.68,11.94,10.16,7.96,15.24,18.64,15.24,32.04,0,8.8-2.2,15.92-6.6,21.36-4.4,5.45-10.16,8.17-17.28,8.17-7.96,0-14.35-3.24-19.16-9.74,3.98-2.93,7.12-6.8,9.42-11.62,2.3-4.81,3.46-9.84,3.46-15.08,0-6.7-1.99-12.04-5.97-16.02-3.98-3.98-9.42-5.97-16.33-5.97-8.38,0-15.24,2.98-20.58,8.95-5.34,5.97-8.01,13.56-8.01,22.77,0,8.38,2.41,16.18,7.22,23.4,4.82,7.23,12.35,16.49,22.62,27.8,8.37,9.01,15.13,16.76,20.26,23.25,5.13,6.49,9.53,13.98,13.19,22.46,3.66,8.48,5.5,17.65,5.5,27.49,0,13.41-3.72,25.55-11.15,36.44-7.44,10.89-17.59,19.48-30.47,25.76-12.88,6.28-27.17,9.42-42.88,9.42-13.19,0-24.82-2.31-34.87-6.91Z"/>
        <path class="cls-3" d="M1174.74,328.06c-6.18-6.28-9.27-15.71-9.27-28.27,0-5.23.84-12.04,2.51-20.42l18.85-88.27h-10.37l2.51-12.57h10.37l9.42-43.35,46.49-6.28-10.68,49.63h18.85l-2.51,12.57h-18.85l-20.11,94.24c-.84,3.14-1.26,6.49-1.26,10.05,0,4.19.99,7.18,2.98,8.95,1.99,1.78,5.29,2.67,9.89,2.67,6.07,0,11.73-2.56,16.96-7.7,5.23-5.13,9-11.78,11.31-19.95h13.19c-7.75,22.62-17.7,37.96-29.84,46.02-12.15,8.06-24.19,12.09-36.13,12.09-10.05,0-18.17-3.14-24.35-9.42Z"/>
        <path class="cls-3" d="M1260.97,324.92c-9.01-7.96-13.51-20.52-13.51-37.7,0-14.24,2.94-30.05,8.8-47.44,5.86-17.38,15.28-32.41,28.27-45.08,12.98-12.67,29.32-19.01,49.01-19.01,26.8,0,40.21,16.76,40.21,50.26v.31c.63.21,1.78.31,3.46.31,6.91,0,14.87-1.83,23.87-5.5,9-3.66,17.17-8.11,24.5-13.35l2.83,8.48c-6.08,6.49-13.98,11.99-23.72,16.49-9.74,4.51-20.37,7.7-31.89,9.58-1.68,19.06-5.97,35.71-12.88,49.95-6.91,14.24-15.82,25.24-26.7,32.98-10.89,7.75-22.73,11.62-35.5,11.62-15.5,0-27.75-3.98-36.75-11.94ZM1325.37,299.95c5.03-5.76,9.42-13.61,13.19-23.56,3.77-9.94,6.49-20.99,8.17-33.14-5.66-1.26-8.48-5.65-8.48-13.19,0-8.58,3.24-14.24,9.74-16.96-.42-6.91-1.47-11.67-3.14-14.29-1.68-2.62-4.61-3.93-8.8-3.93-6.91,0-13.62,5.03-20.1,15.08-6.49,10.05-11.73,22.1-15.71,36.13-3.98,14.03-5.97,26.39-5.97,37.07,0,10.05,1.15,16.81,3.46,20.26,2.3,3.46,6.49,5.18,12.57,5.18,5.03,0,10.05-2.88,15.08-8.64Z"/>
        <path class="cls-3" d="M1411.13,178.53h45.24l-4.08,19.48c7.12-6.28,13.56-11.1,19.32-14.45,5.76-3.35,11.99-5.03,18.69-5.03s11.99,2.31,15.86,6.91c3.87,4.61,5.81,10.16,5.81,16.65,0,6.08-1.99,11.42-5.97,16.02-3.98,4.61-9.53,6.91-16.65,6.91-4.61,0-7.7-1.1-9.27-3.3-1.57-2.2-2.78-5.39-3.61-9.58-.63-2.72-1.26-4.71-1.88-5.97-.63-1.26-1.78-1.88-3.46-1.88-4.4,0-8.12.89-11.15,2.67-3.04,1.78-6.97,4.87-11.78,9.27l-25.13,119.37h-45.24l33.3-157.07Z"/>
        <path class="cls-3" d="M1516.36,325.39c-8.58-8.06-12.88-20.68-12.88-37.85,0-14.45,2.83-30.36,8.48-47.75,5.65-17.38,14.87-32.41,27.64-45.08,12.77-12.67,29-19.01,48.69-19.01,23.04,0,34.56,10.05,34.56,30.16,0,11.73-3.35,22.52-10.05,32.36-6.71,9.85-15.6,17.75-26.7,23.72-11.1,5.97-22.93,9.38-35.5,10.21-.42,4.61-.63,7.75-.63,9.42,0,17.39,6.49,26.07,19.48,26.07,5.86,0,12.14-1.57,18.85-4.71,6.7-3.14,12.77-7.12,18.22-11.94-5.66,31-23.77,46.49-54.35,46.49-15.29,0-27.23-4.03-35.81-12.09ZM1575.26,249.21c7.01-5.03,12.67-11.47,16.96-19.32,4.29-7.85,6.44-16.07,6.44-24.66s-2.62-12.88-7.85-12.88c-7.33,0-14.61,6.65-21.83,19.95-7.23,13.3-12.62,28.22-16.18,44.77,7.96-.21,15.44-2.83,22.46-7.85Z"/>
      </g>
      <g>
        <path class="cls-1" d="M555.14,680.3c0-37.87-30.81-68.68-68.67-68.68s-68.67,30.81-68.67,68.68,30.81,68.67,68.67,68.67,68.67-30.81,68.67-68.67ZM486.46,701.53c-11.7,0-21.22-9.52-21.22-21.22s9.52-21.22,21.22-21.22,21.22,9.52,21.22,21.22-9.52,21.22-21.22,21.22Z"/>
        <path class="cls-1" d="M734.5,680.3c0,37.87,30.81,68.67,68.67,68.67s68.67-30.81,68.67-68.67-30.81-68.68-68.67-68.68-68.67,30.81-68.67,68.68ZM824.4,680.3c0,11.7-9.52,21.22-21.22,21.22s-21.22-9.52-21.22-21.22,9.52-21.22,21.22-21.22,21.22,9.52,21.22,21.22Z"/>
      </g>
    </g>
  </g>
</svg>